<?xml version="1.0" encoding="UTF-8" standalone="no"?>
<!-- Creator: CorelDRAW -->

<svg
   xmlns:dc="http://purl.org/dc/elements/1.1/"
   xmlns:cc="http://creativecommons.org/ns#"
   xmlns:rdf="http://www.w3.org/1999/02/22-rdf-syntax-ns#"
   xmlns:svg="http://www.w3.org/2000/svg"
   xmlns="http://www.w3.org/2000/svg"
   xmlns:sodipodi="http://sodipodi.sourceforge.net/DTD/sodipodi-0.dtd"
   xmlns:inkscape="http://www.inkscape.org/namespaces/inkscape"
   xml:space="preserve"
   width="48"
   height="48"
   style="fill-rule:evenodd"
   viewBox="0 0 13.546667 13.546667"
   id="svg2"
   version="1.1"
   inkscape:version="0.48.3.1 r9886"
   sodipodi:docname="huayra-tda.svg"
   inkscape:export-filename="/home/alumno/.icons/huayra-dev/22x22/all/start-here.png"
   inkscape:export-xdpi="123"
   inkscape:export-ydpi="123"><metadata
   id="metadata336"><rdf:RDF><cc:Work
       rdf:about=""><dc:format>image/svg+xml</dc:format><dc:type
         rdf:resource="http://purl.org/dc/dcmitype/StillImage" /><dc:title></dc:title></cc:Work></rdf:RDF></metadata><sodipodi:namedview
   pagecolor="#ffffff"
   bordercolor="#666666"
   borderopacity="1"
   objecttolerance="10"
   gridtolerance="10"
   guidetolerance="10"
   inkscape:pageopacity="0"
   inkscape:pageshadow="2"
   inkscape:window-width="1914"
   inkscape:window-height="1030"
   id="namedview334"
   showgrid="false"
   inkscape:zoom="9.8008787"
   inkscape:cx="10.945557"
   inkscape:cy="11.480088"
   inkscape:window-x="0"
   inkscape:window-y="25"
   inkscape:window-maximized="1"
   inkscape:current-layer="svg2" />
 <defs
   id="defs4"><style
     type="text/css"
     id="style6">
   
    .fil0 {fill:#99AE6A}
    .fil4 {fill:#73A848}
    .fil8 {fill:#6F448A;fill-rule:nonzero}
    .fil1 {fill:#99AE6A;fill-rule:nonzero}
    .fil3 {fill:#ABA0C0;fill-rule:nonzero}
    .fil2 {fill:#BA8FBA;fill-rule:nonzero}
    .fil5 {fill:#73A848;fill-rule:nonzero}
    .fil6 {fill:#98227A;fill-rule:nonzero}
    .fil9 {fill:#B299BF;fill-rule:nonzero}
    .fil7 {fill:#D189B2;fill-rule:nonzero}
   
  </style></defs>
 
<path
   style="fill:#808080;fill-opacity:1"
   d="M 7.3503552,1.5902445 C 7.2949824,1.6210982 7.2309699,1.7752498 7.1480227,2.0848376 6.9289179,2.9026035 6.5244442,4.9528179 5.7541695,6.5136928 c -0.096605,-0.00443 -0.1934259,-0.00769 -0.2922594,0 -0.022076,0.00171 -0.045305,-0.00233 -0.067444,0 C 5.2764011,5.1349932 5.0051967,3.049099 4.8998717,2.3770972 4.8023374,1.754791 4.5833705,1.4462097 4.6076121,2.242208 4.6317444,3.0347467 4.5930188,5.1157535 4.5851308,6.7609896 4.3856179,6.8534017 4.1753289,6.970966 3.9781303,7.1206933 3.4938606,6.0994379 2.6821043,4.6845115 2.3369807,4.1980984 1.9724753,3.6843723 1.7037898,3.4362906 1.9997583,4.1756172 2.2924458,4.9067509 2.8193923,6.199386 3.3711296,7.7276942 3.2560891,7.8596204 3.1454484,8.0019434 3.0339072,8.1548426 2.5389698,7.765719 2.0753573,7.5032099 1.7299802,7.2555827 1.2244345,6.8931176 0.88454085,6.7142 1.3702761,7.2780642 1.7345775,7.7009624 2.0169638,8.1468298 2.6292401,8.7843249 2.8333324,8.9968189 3.0777932,9.2418264 3.3711296,9.5037324 L 3.6409075,8.9641768 C 5.0953795,6.4740772 8.2653602,8.5988552 6.9681696,10.672771 l 0.9667044,0.359704 0,0.02238 c 0.012265,0.0045 0.032595,-0.0045 0.044964,0 1.0181637,0.373797 2.395691,0.839081 3.012521,0.921743 0.465155,0.06235 0.791052,0.06868 0.04497,-0.26978 C 10.317065,11.380185 9.6385324,11.007489 8.3170598,10.313067 8.3605625,10.171268 8.3865617,10.028107 8.406986,9.8859168 9.7265063,9.6834272 11.25695,9.1976487 11.756728,8.9866574 12.337449,8.7415022 12.732176,8.3209651 11.689284,8.5595094 10.839434,8.7538976 9.6820047,8.9293581 8.3845042,8.9866574 8.3548029,8.8173194 8.306688,8.6526895 8.2496154,8.4920653 9.630431,7.9096224 11.305843,6.8358876 11.801691,6.4462484 12.197352,6.135343 12.45722,5.7539202 12.138914,5.8167668 12.032813,5.8377152 11.873203,5.9037638 11.621839,6.0415815 10.694666,6.5499306 9.3459728,7.1425565 7.7999852,7.6377682 7.7559635,7.5796118 7.7129293,7.5126189 7.6650962,7.4579161 8.7563201,6.5148647 10.010537,5.0172238 10.542728,3.9732836 10.733181,3.5996921 10.845139,3.1987838 10.745061,3.1864312 10.685014,3.1790194 10.554263,3.3240526 10.317913,3.6810242 9.7261393,4.5748097 8.2815633,5.831316 6.9007252,6.8509155 6.792575,6.7892989 6.6782815,6.7398549 6.5635025,6.6935449 7.2819433,5.3573478 7.4799554,2.8851664 7.4852442,2.242208 7.4886973,1.822885 7.4426407,1.5388223 7.350356,1.5902445 z M 5.3045386,8.8742496 c -0.5184027,0.039508 -0.9162812,0.4932657 -0.8767784,1.0116672 0.039503,0.5184042 0.4932645,0.9162822 1.0116674,0.8767792 0.518403,-0.03951 0.9162811,-0.493264 0.8767787,-1.0116674 l 0,-0.022385 C 6.2661715,9.2191077 5.8149515,8.8353563 5.3045386,8.8742496 z"
   id="_121731384"
   inkscape:connector-curvature="0" /></svg>