<?xml version="1.0" encoding="UTF-8" standalone="no"?>
<!-- Created with Inkscape (http://www.inkscape.org/) -->

<svg
   xmlns:dc="http://purl.org/dc/elements/1.1/"
   xmlns:cc="http://creativecommons.org/ns#"
   xmlns:rdf="http://www.w3.org/1999/02/22-rdf-syntax-ns#"
   xmlns:svg="http://www.w3.org/2000/svg"
   xmlns="http://www.w3.org/2000/svg"
   xmlns:sodipodi="http://sodipodi.sourceforge.net/DTD/sodipodi-0.dtd"
   xmlns:inkscape="http://www.inkscape.org/namespaces/inkscape"
   width="640"
   height="200"
   id="svg4573"
   version="1.1"
   inkscape:version="0.48.3.1 r9886"
   inkscape:export-filename="/home/alumno/Dropbox/huayra/patterns/vacayendo.png"
   inkscape:export-xdpi="90"
   inkscape:export-ydpi="90"
   sodipodi:docname="vaca.svg">
  <defs
     id="defs4575" />
  <sodipodi:namedview
     id="base"
     pagecolor="#ededed"
     bordercolor="#666666"
     borderopacity="1.0"
     inkscape:pageopacity="1"
     inkscape:pageshadow="2"
     inkscape:zoom="0.7"
     inkscape:cx="535.97766"
     inkscape:cy="53.153894"
     inkscape:document-units="px"
     inkscape:current-layer="layer1"
     showgrid="false"
     fit-margin-top="0"
     fit-margin-left="0"
     fit-margin-right="0"
     fit-margin-bottom="0"
     inkscape:window-width="1914"
     inkscape:window-height="1030"
     inkscape:window-x="0"
     inkscape:window-y="25"
     inkscape:window-maximized="1" />
  <metadata
     id="metadata4578">
    <rdf:RDF>
      <cc:Work
         rdf:about="">
        <dc:format>image/svg+xml</dc:format>
        <dc:type
           rdf:resource="http://purl.org/dc/dcmitype/StillImage" />
        <dc:title />
      </cc:Work>
    </rdf:RDF>
  </metadata>
  <g
     inkscape:label="Capa 1"
     inkscape:groupmode="layer"
     id="layer1"
     transform="translate(-144.45181,-562.44843)">
    <g
       id="g4660"
       transform="matrix(0.96139801,0,0,0.96139801,218.13868,164.28449)"
       style="opacity:0.17;fill:#999999">
      <path
         sodipodi:nodetypes="sssssszsszsss"
         inkscape:connector-curvature="0"
         id="path5150"
         d="m 398.16203,581.73897 c 7.99128,11.76712 20.55621,11.80268 39.50998,9.74567 18.93805,-2.05525 33.14481,-4.76789 39.61295,-19.56845 1.48904,-3.40723 1.79834,-12.44879 -4.22713,-16.54347 -7.56704,-5.14218 -11.05228,15.87524 -17.04365,7.44684 -7.35159,-10.34186 11.72814,-6.21918 12.2493,-11.5813 0.65259,-6.71508 -3.31684,-6.41224 -9.32494,-8.1514 -6.00806,-1.73911 -11.03121,7.20937 -23.65318,7.99443 -6.31094,0.3925 -15.009,-6.10328 -21.56698,-7.94919 -6.55799,-1.8459 -9.85257,4.08257 -14.13853,8.13787 -4.28601,4.05525 20.67257,-2.60165 12.53736,10.91978 -6.68442,11.11005 -12.58713,-13.48936 -16.88667,-1.21883 -4.1587,11.86872 0.19243,16.73482 2.93149,20.76805 z"
         style="fill:#999999;fill-opacity:1;stroke:none" />
      <path
         sodipodi:nodetypes="sssscsssscsssssccsscscccssccc"
         inkscape:connector-curvature="0"
         id="path5152"
         d="m 432.24506,429.18651 c -57.19803,2.43581 -63.53742,60.72099 -64.17195,74.12093 -0.63452,13.39998 -9.70803,42.59417 -6.76639,45.13793 2.94159,2.54376 3.76948,0.40452 6.14485,-1.94883 2.18105,-2.16086 6.39141,-32.04471 5.65685,-36.97075 0.75075,4.12662 5.23435,19.93056 30.25847,22.45772 17.13382,1.73032 25.774,-18.27367 29.50298,-21.47375 3.72897,-3.20011 8.56354,-2.01629 11.46717,1.22783 2.90364,3.24413 2.99971,18.08219 24.6325,19.91674 17.37047,1.47304 25.81955,-19.55868 25.81955,-19.55868 0,0 8.87612,25.56994 12.07134,28.9806 4.53469,4.8403 8.6578,0.80222 7.05048,-4.7422 -2.12911,-7.34432 -16.68887,-18.32395 -15.03683,-40.68697 1.65208,-22.36307 -9.43099,-68.89642 -66.62902,-66.46057 z M 402.339,476.69357 c 12.52158,-1.01879 23.8363,8.32341 25.78964,21.54364 l 0.0855,0.54433 c 1.76,13.90243 -7.5141,26.61555 -20.71415,28.39129 -13.20005,1.77573 -25.33249,-8.0498 -27.09244,-21.95218 -1.76,-13.90243 7.51405,-26.61559 20.71415,-28.39128 0.40613,-0.0547 0.81333,-0.10293 1.21726,-0.1358 z m 62.62768,2.98358 c 11.54415,-0.93196 21.97301,7.4656 23.75872,19.37246 l 0.0686,0.48898 c 1.60673,12.52162 -6.94812,23.98848 -19.11857,25.60306 -12.17046,1.61452 -23.3403,-7.22338 -24.94698,-19.74499 -1.60673,-12.52166 6.94811,-23.98853 19.11857,-25.60306 0.37446,-0.0498 0.74737,-0.0864 1.11979,-0.11646 z"
         style="fill:#999999;fill-opacity:1;stroke:none" />
      <path
         sodipodi:nodetypes="cscc"
         inkscape:connector-curvature="0"
         id="path5962"
         d="m 379.76194,453.64018 c -3.59683,-3.32543 -15.49387,-20.11208 -12.11804,-24.3472 7.13645,-8.95301 22.37822,14.112 22.37822,14.112 0,0 -7.55884,5.27601 -10.26018,10.2352 z"
         style="fill:#999999;fill-opacity:1;stroke:none" />
      <path
         sodipodi:nodetypes="cscc"
         inkscape:connector-curvature="0"
         id="path5964"
         d="m 480.24,441.71116 c 0,0 14.50984,-16.57843 18.25993,-12.24143 6.22197,7.19574 -3.51309,20.01363 -9.18373,21.88825 -3.89552,-7.00391 -9.0762,-9.64682 -9.0762,-9.64682 z"
         style="fill:#999999;fill-opacity:1;stroke:none" />
      <path
         inkscape:connector-curvature="0"
         id="path5156-8"
         d="m 424.48854,493.6328 c 1.44237,11.46763 -6.11534,21.946 -16.88061,23.4041 -10.76526,1.45805 -20.66151,-6.65631 -22.10387,-18.12394 -1.44237,-11.46764 6.11535,-21.94596 16.88061,-23.40406 10.59937,-1.43562 20.39086,6.41411 22.0422,17.67094"
         style="fill:#999999;fill-opacity:1;stroke:none" />
      <path
         transform="matrix(0.46058587,-0.02474393,0.02353113,0.4380109,231.70913,371.48899)"
         sodipodi:open="true"
         sodipodi:end="12.46847"
         sodipodi:start="6.2071318"
         d="m 535.86022,312.22809 c 1.83968,23.36373 -16.24035,43.74701 -40.38287,45.52734 -24.14251,1.78032 -45.20524,-15.71648 -47.04491,-39.0802 -1.83967,-23.36373 16.24036,-43.74701 40.38287,-45.52734 23.7704,-1.75288 44.63156,15.19701 46.96172,38.15683"
         sodipodi:ry="42.426407"
         sodipodi:rx="43.840622"
         sodipodi:cy="315.45166"
         sodipodi:cx="492.14633"
         id="path5156-8-8"
         style="fill:#999999;fill-opacity:1;stroke:none"
         sodipodi:type="arc" />
      <path
         sodipodi:nodetypes="csccsssc"
         inkscape:connector-curvature="0"
         id="path5154"
         d="m 366.67904,500.52001 c -5.62678,-18.32206 -15.99238,-29.49377 -25.16955,-19.84253 -8.80571,9.26055 13.65679,21.1803 23.57799,23.96662 l 0.93446,3.53094 c -12.15087,2.33879 -47.47123,-11.55858 -43.91232,-28.31143 2.22432,-10.47056 7.77543,-16.94028 15.4361,-17.38214 4.59638,-0.26495 9.94904,1.64193 15.81331,6.146 13.95241,10.71625 15.99112,19.04711 14.63158,29.31194"
         style="fill:#999999;fill-opacity:1;stroke:none" />
      <path
         sodipodi:nodetypes="zszz"
         inkscape:connector-curvature="0"
         id="path6030"
         d="m 412.73593,593.3473 c 12.76052,3.25789 37.14238,-0.55878 54.58893,-7.26352 4.47353,-1.71919 -6.08905,22.12854 -31.36487,22.82264 -25.27582,0.6941 -35.98463,-18.817 -23.22406,-15.55912 z"
         style="fill:#999999;fill-opacity:1;stroke:none" />
      <path
         sodipodi:nodetypes="csccsssc"
         inkscape:connector-curvature="0"
         id="path5154-4"
         d="m 500.81642,498.94803 c 6.7594,-17.93513 17.80207,-28.43811 26.35899,-18.2329 8.21051,9.7921 -14.95212,20.28661 -25.02792,22.44829 l -1.15299,3.46571 c 11.9812,3.09265 48.10006,-8.57315 45.59373,-25.51548 -1.56646,-10.58896 -6.70293,-17.39256 -14.32109,-18.31166 -4.57084,-0.5515 -10.03213,1.01779 -16.16606,5.14705 -14.5941,9.82447 -17.14876,18.01187 -16.43257,28.34157"
         style="fill:#999999;fill-opacity:1;stroke:none" />
    </g>
  </g>
</svg>
